<?xml version="1.0" encoding="utf-8"?>
<!-- Generator: Adobe Illustrator 21.1.0, SVG Export Plug-In . SVG Version: 6.00 Build 0)  -->
<svg version="1.1" id="Layer_7" xmlns="http://www.w3.org/2000/svg" xmlns:xlink="http://www.w3.org/1999/xlink" x="0px" y="0px"
	 viewBox="0 0 640 178.5" style="enable-background:new 0 0 640 178.5;" xml:space="preserve">
<style type="text/css">
	.st0{display:none;}
	.st1{fill:#F4D90C;}
	.st2{fill:#899297;}
	.st3{fill:#4E4E50;}
	.st4{fill:#F5EE4B;}
	.st5{fill:#2260AD;}
</style>
<g id="Layer_6">
</g>
<g id="Layer_1" class="st0">
	
		<image style="display:inline;overflow:visible;" width="1200" height="628" xlink:href="907C91B483FC1596.jpg"  transform="matrix(0.5264 0 0 0.5264 4.1677 -55.1666)">
	</image>
</g>
<g id="swish">
	<path class="st1" d="M121.5,93.5c0,0-55,13.5-47,36.2s77.1,31.2,77.1,31.2s202.8,40.8,484.3-67.5c0,0-199.1,71.3-482.1,51.8
		c0,0-43.4-6.4-46.7-10.1c0,0-12.7-5.7-14.3-16C91,108.9,111.7,96.4,121.5,93.5z"/>
</g>
<g id="Layer_4">
	<path class="st2" d="M418.4,21.7l-10.8,16.5h-24.8c0,0-23-0.5-20.5,23.8s22.9,21.3,22.9,21.3l29.9,0.1v15.4h-43.2
		c0,0-32,2.8-31.8-38.5s38-38.5,38-38.5H418.4z"/>
	<path class="st2" d="M421.5,21.6h22.2v47.3c0,0-0.8,13.8,13.9,15h8.9c0,0,11.4,0.1,13.9-13.9V21.6h22.5v49.8c0,0,2.9,30.4-40.7,29
		l-3.8,0c0,0-19.9,0-26.5-6.7c0,0-8.9-4.6-10.4-21S421.5,21.6,421.5,21.6z"/>
	<path class="st2" d="M509.4,99.4h22.5V71.7V37.4h26.2c0,0,10.6,0.2,10.2,8.6s-7.5,8.9-7.5,8.9h-12.2l-18.4,17.8h40.6
		c0,0,20.4,0.4,20.8-24.6S572,21.8,572,21.8h-37.4h-24.8L509.4,99.4z"/>
</g>
<g id="ball">
	<circle class="st3" cx="142.4" cy="77.6" r="20.1"/>
	<circle class="st4" cx="144.5" cy="68.7" r="2.1"/>
	<circle class="st4" cx="151.6" cy="70.9" r="2.1"/>
</g>
<g id="nash">
	<polygon id="N" class="st5" points="30.7,36.4 30.7,98.9 10.4,98.9 10.4,21.1 44.2,21.1 71.9,85.6 71.9,21.1 92.7,21.1 92.7,98.9 
		56.9,98.9 	"/>
	<path id="AS" class="st5" d="M264.7,73.9c-1.8-24.8-27.2-22.8-27.2-22.8l-19.8-0.2c0,0-12,0.5-13.8-6.8s8.8-7.2,8.8-7.2h41.2
		l10.8-15.8l-57,0c0,0-24.2-1.2-27.2,22.2s23.8,26,23.8,26h26.5c0,0,8.5,0.2,9.8,6.8s-8,8-8,8h-47.2l-27.5-63h-31l-34,77.8
		l28.8-13.1c-1.1-2.7-1.7-5.6-1.7-8.7c0-9.7,6.1-18,14.6-21.3l6.7-16.5l7.1,15.7c9.8,2.5,17,11.5,17,22.1c0,4.2-1.1,8-3.1,11.4
		l0.1,0.3l5.2,10h69C236.7,98.9,266.4,98.6,264.7,73.9z"/>
	<path id="H" class="st5" d="M267.9,98.9h21.8V68.4h32.8v30.5h22.2v-9.5c0,0-8.8-8.5-8-29.4s8-27.9,8-27.9V21.9h-22v29.8h-33V21.9
		h-21.8V98.9z"/>
</g>
</svg>
